<mxfile host="app.diagrams.net" agent="Mozilla/5.0 (Macintosh; Intel Mac OS X 10_15_7) AppleWebKit/537.36 (KHTML, like Gecko) Chrome/131.0.0.0 Safari/537.36" version="24.7.14">
  <diagram name="Page-1" id="cuYI4NiPdfl9KUKZ7rXC">
    <mxGraphModel dx="874" dy="571" grid="1" gridSize="10" guides="1" tooltips="1" connect="1" arrows="1" fold="1" page="1" pageScale="1" pageWidth="827" pageHeight="1169" math="0" shadow="0">
      <root>
        <mxCell id="0" />
        <mxCell id="1" parent="0" />
        <mxCell id="FRy0X0okpq2MEX7t8Adi-7" style="edgeStyle=orthogonalEdgeStyle;rounded=0;orthogonalLoop=1;jettySize=auto;html=1;entryX=0.5;entryY=0;entryDx=0;entryDy=0;" edge="1" parent="1" source="FRy0X0okpq2MEX7t8Adi-1" target="FRy0X0okpq2MEX7t8Adi-2">
          <mxGeometry relative="1" as="geometry" />
        </mxCell>
        <mxCell id="FRy0X0okpq2MEX7t8Adi-8" style="edgeStyle=orthogonalEdgeStyle;rounded=0;orthogonalLoop=1;jettySize=auto;html=1;" edge="1" parent="1" source="FRy0X0okpq2MEX7t8Adi-1" target="FRy0X0okpq2MEX7t8Adi-3">
          <mxGeometry relative="1" as="geometry" />
        </mxCell>
        <mxCell id="FRy0X0okpq2MEX7t8Adi-1" value="5" style="text;html=1;align=center;verticalAlign=middle;whiteSpace=wrap;rounded=0;" vertex="1" parent="1">
          <mxGeometry x="130" y="130" width="20" height="20" as="geometry" />
        </mxCell>
        <mxCell id="FRy0X0okpq2MEX7t8Adi-11" style="edgeStyle=orthogonalEdgeStyle;rounded=0;orthogonalLoop=1;jettySize=auto;html=1;entryX=0;entryY=0.25;entryDx=0;entryDy=0;" edge="1" parent="1" source="FRy0X0okpq2MEX7t8Adi-2" target="FRy0X0okpq2MEX7t8Adi-5">
          <mxGeometry relative="1" as="geometry" />
        </mxCell>
        <mxCell id="FRy0X0okpq2MEX7t8Adi-2" value="2" style="text;html=1;align=center;verticalAlign=middle;whiteSpace=wrap;rounded=0;" vertex="1" parent="1">
          <mxGeometry x="130" y="220" width="20" height="20" as="geometry" />
        </mxCell>
        <mxCell id="FRy0X0okpq2MEX7t8Adi-3" value="0" style="text;html=1;align=center;verticalAlign=middle;whiteSpace=wrap;rounded=0;" vertex="1" parent="1">
          <mxGeometry x="200" y="160" width="20" height="20" as="geometry" />
        </mxCell>
        <mxCell id="FRy0X0okpq2MEX7t8Adi-9" style="edgeStyle=orthogonalEdgeStyle;rounded=0;orthogonalLoop=1;jettySize=auto;html=1;entryX=1;entryY=0.25;entryDx=0;entryDy=0;" edge="1" parent="1" source="FRy0X0okpq2MEX7t8Adi-4" target="FRy0X0okpq2MEX7t8Adi-3">
          <mxGeometry relative="1" as="geometry" />
        </mxCell>
        <mxCell id="FRy0X0okpq2MEX7t8Adi-10" style="edgeStyle=orthogonalEdgeStyle;rounded=0;orthogonalLoop=1;jettySize=auto;html=1;" edge="1" parent="1" source="FRy0X0okpq2MEX7t8Adi-4" target="FRy0X0okpq2MEX7t8Adi-6">
          <mxGeometry relative="1" as="geometry" />
        </mxCell>
        <mxCell id="FRy0X0okpq2MEX7t8Adi-4" value="4" style="text;html=1;align=center;verticalAlign=middle;whiteSpace=wrap;rounded=0;" vertex="1" parent="1">
          <mxGeometry x="270" y="130" width="20" height="20" as="geometry" />
        </mxCell>
        <mxCell id="FRy0X0okpq2MEX7t8Adi-12" style="edgeStyle=orthogonalEdgeStyle;rounded=0;orthogonalLoop=1;jettySize=auto;html=1;entryX=0;entryY=0.25;entryDx=0;entryDy=0;" edge="1" parent="1" source="FRy0X0okpq2MEX7t8Adi-5" target="FRy0X0okpq2MEX7t8Adi-6">
          <mxGeometry relative="1" as="geometry" />
        </mxCell>
        <mxCell id="FRy0X0okpq2MEX7t8Adi-5" value="3" style="text;html=1;align=center;verticalAlign=middle;whiteSpace=wrap;rounded=0;" vertex="1" parent="1">
          <mxGeometry x="200" y="210" width="20" height="20" as="geometry" />
        </mxCell>
        <mxCell id="FRy0X0okpq2MEX7t8Adi-6" value="1" style="text;html=1;align=center;verticalAlign=middle;whiteSpace=wrap;rounded=0;" vertex="1" parent="1">
          <mxGeometry x="270" y="230" width="20" height="20" as="geometry" />
        </mxCell>
        <mxCell id="FRy0X0okpq2MEX7t8Adi-14" value="&lt;div&gt;Only valid for Directed Acyclic Graph&lt;/div&gt;&lt;div&gt;&lt;br&gt;&lt;/div&gt;5 -&amp;gt; 0&lt;div&gt;5 -&amp;gt; 2&lt;/div&gt;&lt;div&gt;4 -&amp;gt; 0&lt;/div&gt;&lt;div&gt;4 -&amp;gt; 1&lt;/div&gt;&lt;div&gt;2 -&amp;gt; 3&lt;/div&gt;&lt;div&gt;3 -&amp;gt; 1&lt;/div&gt;&lt;div&gt;&lt;br&gt;&lt;/div&gt;&lt;div&gt;list = [[],[],[3],[1],[0,1],[0,2]]&lt;/div&gt;" style="text;html=1;align=left;verticalAlign=middle;whiteSpace=wrap;rounded=0;" vertex="1" parent="1">
          <mxGeometry x="90" y="290" width="210" height="170" as="geometry" />
        </mxCell>
        <mxCell id="FRy0X0okpq2MEX7t8Adi-15" value="Valid results are&lt;div&gt;5 4 2 3 1 0&lt;/div&gt;&lt;div&gt;4 5 2 3 1 0&lt;/div&gt;" style="text;html=1;align=left;verticalAlign=middle;whiteSpace=wrap;rounded=0;" vertex="1" parent="1">
          <mxGeometry x="370" y="340" width="370" height="180" as="geometry" />
        </mxCell>
        <mxCell id="FRy0X0okpq2MEX7t8Adi-19" style="edgeStyle=orthogonalEdgeStyle;rounded=0;orthogonalLoop=1;jettySize=auto;html=1;" edge="1" parent="1" source="FRy0X0okpq2MEX7t8Adi-16" target="FRy0X0okpq2MEX7t8Adi-17">
          <mxGeometry relative="1" as="geometry" />
        </mxCell>
        <mxCell id="FRy0X0okpq2MEX7t8Adi-16" value="1" style="text;html=1;align=center;verticalAlign=middle;whiteSpace=wrap;rounded=0;" vertex="1" parent="1">
          <mxGeometry x="120" y="510" width="20" height="20" as="geometry" />
        </mxCell>
        <mxCell id="FRy0X0okpq2MEX7t8Adi-21" style="edgeStyle=orthogonalEdgeStyle;rounded=0;orthogonalLoop=1;jettySize=auto;html=1;" edge="1" parent="1" source="FRy0X0okpq2MEX7t8Adi-18">
          <mxGeometry relative="1" as="geometry">
            <mxPoint x="230" y="620" as="targetPoint" />
          </mxGeometry>
        </mxCell>
        <mxCell id="FRy0X0okpq2MEX7t8Adi-17" value="2" style="text;html=1;align=center;verticalAlign=middle;whiteSpace=wrap;rounded=0;" vertex="1" parent="1">
          <mxGeometry x="200" y="520" width="20" height="20" as="geometry" />
        </mxCell>
        <mxCell id="FRy0X0okpq2MEX7t8Adi-22" value="" style="edgeStyle=orthogonalEdgeStyle;rounded=0;orthogonalLoop=1;jettySize=auto;html=1;" edge="1" parent="1" source="FRy0X0okpq2MEX7t8Adi-17" target="FRy0X0okpq2MEX7t8Adi-18">
          <mxGeometry relative="1" as="geometry">
            <mxPoint x="220" y="530" as="sourcePoint" />
            <mxPoint x="230" y="620" as="targetPoint" />
          </mxGeometry>
        </mxCell>
        <mxCell id="FRy0X0okpq2MEX7t8Adi-23" style="edgeStyle=orthogonalEdgeStyle;rounded=0;orthogonalLoop=1;jettySize=auto;html=1;entryX=0.5;entryY=1;entryDx=0;entryDy=0;" edge="1" parent="1" source="FRy0X0okpq2MEX7t8Adi-18" target="FRy0X0okpq2MEX7t8Adi-16">
          <mxGeometry relative="1" as="geometry" />
        </mxCell>
        <mxCell id="FRy0X0okpq2MEX7t8Adi-18" value="3" style="text;html=1;align=center;verticalAlign=middle;whiteSpace=wrap;rounded=0;" vertex="1" parent="1">
          <mxGeometry x="220" y="620" width="20" height="20" as="geometry" />
        </mxCell>
        <mxCell id="FRy0X0okpq2MEX7t8Adi-24" value="Not valid for Directed Cyclic Graph" style="text;html=1;align=center;verticalAlign=middle;whiteSpace=wrap;rounded=0;" vertex="1" parent="1">
          <mxGeometry x="140" y="570" width="60" height="30" as="geometry" />
        </mxCell>
      </root>
    </mxGraphModel>
  </diagram>
</mxfile>
